<svg fill="none" xmlns="http://www.w3.org/2000/svg" width="32" height="32" viewBox="0 0 32 32"><path fill="#fff" d="M0 0h32v32H0z"/><path fill="#64A637" d="M3 3h26v26H3z"/><path d="M21.966 15.817c-1-.374-2-.749-3-1.086-3.552-1.274-7.07-2.547-10.587-3.82-.276-.113-.345-.225-.345-.525.035-.974.035-1.985.035-2.997 0-.45 0-.45.414-.3a1324.64 1324.64 0 0 1 12.793 4.982l2.897 1.124c.241.075.31.225.276.45a92.801 92.801 0 0 0 0 4.382c0 .262-.07.375-.276.487-5.31 2.472-10.552 4.982-15.863 7.417-.207.112-.31.112-.31-.187.034-.974.034-1.948 0-2.96 0-.224.069-.337.276-.412 4.38-2.06 8.724-4.12 13.104-6.143.172-.112.38-.187.586-.262v-.15z" fill="#F2F2F2"/></svg>