<svg width="16" height="16" viewBox="0 0 16 16" fill="none" xmlns="http://www.w3.org/2000/svg">
<path d="M8.26998 2.00398C7.77848 2.01709 7.28871 2.06791 6.80498 2.15598C5.55648 2.39098 4.61348 2.85798 4.22998 3.43198C4.13787 3.56864 4.07725 3.72405 4.05248 3.88698C3.99948 4.28198 4.22048 4.68198 4.67948 5.02398C5.66348 5.75648 7.57398 6.12898 9.45848 5.95748C10.685 5.84598 11.7635 5.50648 12.4095 5.02398C12.738 4.77998 12.9445 4.50648 13.015 4.22498C13.072 4.00248 13.0445 3.78548 12.937 3.56698C12.6595 3.00648 11.847 2.52598 10.7045 2.24698C9.9864 2.07798 9.25065 1.99572 8.51298 2.00198C8.40598 2.00198 8.29648 2.00198 8.26898 2.00448L8.26998 2.00398ZM4.63098 6.27748C4.53098 6.28748 4.41798 6.32398 4.32448 6.38098C4.25995 6.42444 4.20202 6.47698 4.15248 6.53698C4.11748 6.58398 4.07798 6.66598 4.06048 6.72848L4.04898 6.77748V7.43948C4.04898 8.16798 4.04698 8.12898 4.08398 8.25948C4.27148 8.90998 5.18948 9.48448 6.51198 9.78298C6.98848 9.89048 7.45098 9.95298 8.03498 9.98798C8.20498 9.99798 8.88498 9.99798 9.05498 9.98798C9.62498 9.95298 10.082 9.89448 10.541 9.79298C11.0705 9.67398 11.5195 9.52148 11.914 9.32248C12.346 9.10548 12.662 8.85748 12.8475 8.58598C12.9415 8.44898 12.998 8.31598 13.0295 8.16798L13.043 8.10148V6.77748L13.0295 6.72848C13.0043 6.63679 12.9565 6.5529 12.8905 6.48448C12.7961 6.38729 12.6751 6.32023 12.5427 6.29176C12.4103 6.26328 12.2724 6.27467 12.1465 6.32448C12.123 6.33198 12.0605 6.35948 12.006 6.38298C11.248 6.70098 10.2715 6.91198 9.25798 6.97648C8.80498 7.00598 8.27948 7.00598 7.83598 6.97648C6.79498 6.90998 5.84598 6.70298 5.05098 6.36698C4.99569 6.34366 4.93966 6.32215 4.88298 6.30248C4.80128 6.27845 4.7158 6.26997 4.63098 6.27748ZM4.60948 10.2795C4.31848 10.3205 4.09748 10.5155 4.05448 10.7695C4.04098 10.842 4.04098 12.0195 4.05298 12.1135C4.07798 12.291 4.15248 12.467 4.27148 12.627C4.61548 13.086 5.31248 13.4705 6.24648 13.7185C7.26148 13.9885 8.49398 14.0685 9.65248 13.9375C10.209 13.875 10.744 13.7635 11.205 13.6115C12.3085 13.25 12.9725 12.699 13.039 12.094C13.043 12.059 13.045 11.814 13.045 11.4295C13.045 10.7615 13.045 10.7695 13.01 10.6695C12.9645 10.5572 12.8861 10.4613 12.785 10.3945C12.7372 10.3608 12.6846 10.3345 12.629 10.3165C12.5525 10.2873 12.4708 10.2741 12.389 10.2775C12.2775 10.2775 12.2265 10.289 12.094 10.3455C11.5275 10.5855 10.959 10.748 10.291 10.8595C9.48948 10.9897 8.67589 11.0297 7.86548 10.9785C6.83798 10.916 5.86548 10.709 5.09748 10.3865C5.04498 10.365 4.98048 10.34 4.95498 10.328C4.84581 10.2827 4.7269 10.266 4.60948 10.2795Z" fill="#BCEAFF"/>
<path fill-rule="evenodd" clip-rule="evenodd" d="M1.22606 1.63729C0.835536 2.02781 0.835535 2.66098 1.22606 3.0515L2.46685 4.29229L1.22608 5.53307C0.835551 5.92359 0.835551 6.55676 1.22608 6.94728L1.58408 7.30529C1.97461 7.69581 2.60777 7.69581 2.9983 7.30529L4.23907 6.06451L5.47984 7.30528C5.87037 7.69581 6.50353 7.69581 6.89405 7.30528L7.25206 6.94728C7.64259 6.55675 7.64259 5.92359 7.25206 5.53306L6.01129 4.29229L7.25208 3.05151C7.6426 2.66098 7.6426 2.02782 7.25208 1.63729L6.89407 1.27929C6.50355 0.888761 5.87038 0.888761 5.47986 1.27928L4.23907 2.52007L2.99828 1.27928C2.60776 0.888758 1.97459 0.888758 1.58407 1.27928L1.22606 1.63729Z" fill="#FF1C1C"/>
<path fill-rule="evenodd" clip-rule="evenodd" d="M2.89111 4.29229L1.43821 5.7452C1.16484 6.01857 1.16484 6.46178 1.43821 6.73515L1.79622 7.09316C2.06958 7.36652 2.5128 7.36652 2.78616 7.09316L4.23907 5.64025L5.69197 7.09315C5.96534 7.36652 6.40856 7.36652 6.68192 7.09315L7.03993 6.73515C7.3133 6.46178 7.3133 6.01856 7.03993 5.7452L5.58703 4.29229L7.03995 2.83937C7.31331 2.56601 7.31331 2.12279 7.03995 1.84942L6.68194 1.49142C6.40857 1.21805 5.96536 1.21805 5.69199 1.49142L4.23907 2.94434L2.78615 1.49141C2.51278 1.21805 2.06957 1.21805 1.7962 1.49141L1.43819 1.84942C1.16482 2.12279 1.16482 2.566 1.43819 2.83937L2.89111 4.29229ZM2.99828 1.27928C2.60776 0.888758 1.97459 0.888758 1.58407 1.27928L1.22606 1.63729C0.835536 2.02781 0.835535 2.66098 1.22606 3.0515L2.46685 4.29229L1.22608 5.53307C0.835551 5.92359 0.835551 6.55676 1.22608 6.94728L1.58408 7.30529C1.97461 7.69581 2.60777 7.69581 2.9983 7.30529L4.23907 6.06451L5.47984 7.30528C5.87037 7.69581 6.50353 7.69581 6.89405 7.30528L7.25206 6.94728C7.64259 6.55675 7.64259 5.92359 7.25206 5.53306L6.01129 4.29229L7.25208 3.05151C7.6426 2.66098 7.6426 2.02782 7.25208 1.63729L6.89407 1.27929C6.50355 0.888761 5.87038 0.888761 5.47986 1.27928L4.23907 2.52007L2.99828 1.27928Z" fill="#CD0A00"/>
</svg>
