<svg width="16" height="16" viewBox="0 0 16 16" fill="none" xmlns="http://www.w3.org/2000/svg">
<path d="M5.725 2.00398C5.23349 2.01709 4.74372 2.06791 4.26 2.15598C3.0115 2.39098 2.0685 2.85798 1.685 3.43198C1.59289 3.56864 1.53226 3.72405 1.5075 3.88698C1.4545 4.28198 1.6755 4.68198 2.1345 5.02398C3.1185 5.75648 5.029 6.12898 6.9135 5.95748C8.14 5.84598 9.2185 5.50648 9.8645 5.02398C10.193 4.77998 10.3995 4.50648 10.47 4.22498C10.527 4.00248 10.4995 3.78548 10.392 3.56698C10.1145 3.00648 9.302 2.52598 8.1595 2.24698C7.44142 2.07798 6.70567 1.99572 5.968 2.00198C5.861 2.00198 5.7515 2.00198 5.724 2.00448L5.725 2.00398ZM2.086 6.27748C1.986 6.28748 1.873 6.32398 1.7795 6.38098C1.71496 6.42445 1.65704 6.47699 1.6075 6.53698C1.5725 6.58398 1.533 6.66598 1.5155 6.72848L1.504 6.77748V7.43948C1.504 8.16798 1.502 8.12898 1.539 8.25948C1.7265 8.90998 2.6445 9.48448 3.967 9.78298C4.4435 9.89048 4.906 9.95298 5.49 9.98798C5.66 9.99798 6.34 9.99798 6.51 9.98798C7.08 9.95298 7.537 9.89448 7.996 9.79298C8.5255 9.67398 8.9745 9.52148 9.369 9.32248C9.801 9.10548 10.117 8.85748 10.3025 8.58598C10.3965 8.44898 10.453 8.31598 10.4845 8.16798L10.498 8.10148V6.77748L10.4845 6.72848C10.4593 6.6368 10.4115 6.5529 10.3455 6.48448C10.2512 6.3873 10.1302 6.32023 9.99774 6.29176C9.86533 6.26328 9.72745 6.27467 9.6015 6.32448C9.578 6.33198 9.5155 6.35948 9.461 6.38298C8.703 6.70098 7.7265 6.91198 6.713 6.97648C6.26 7.00598 5.7345 7.00598 5.291 6.97648C4.25 6.90998 3.301 6.70298 2.506 6.36698C2.45071 6.34367 2.39468 6.32215 2.338 6.30248C2.2563 6.27845 2.17082 6.26997 2.086 6.27748ZM2.0645 10.2795C1.7735 10.3205 1.5525 10.5155 1.5095 10.7695C1.496 10.842 1.496 12.0195 1.508 12.1135C1.533 12.291 1.6075 12.467 1.7265 12.627C2.0705 13.086 2.7675 13.4705 3.7015 13.7185C4.7165 13.9885 5.949 14.0685 7.1075 13.9375C7.664 13.875 8.199 13.7635 8.66 13.6115C9.7635 13.25 10.4275 12.699 10.494 12.094C10.498 12.059 10.5 11.814 10.5 11.4295C10.5 10.7615 10.5 10.7695 10.465 10.6695C10.4195 10.5572 10.3411 10.4613 10.24 10.3945C10.1922 10.3608 10.1396 10.3345 10.084 10.3165C10.0075 10.2873 9.92582 10.2741 9.844 10.2775C9.7325 10.2775 9.6815 10.289 9.549 10.3455C8.9825 10.5855 8.414 10.748 7.746 10.8595C6.94449 10.9897 6.1309 11.0297 5.3205 10.9785C4.293 10.916 3.3205 10.709 2.5525 10.3865C2.5 10.365 2.4355 10.34 2.41 10.328C2.30083 10.2827 2.18191 10.266 2.0645 10.2795Z" fill="#BCEAFF"/>
<path d="M9.87773 7.25H6.75C6.61193 7.25 6.5 7.36193 6.5 7.5V9.25C6.5 9.38807 6.61193 9.5 6.75 9.5H9.88656C9.95865 9.5 10.0272 9.53112 10.0747 9.58537L11.6753 11.4146C11.7228 11.4689 11.7914 11.5 11.8634 11.5H14C14.1381 11.5 14.25 11.3881 14.25 11.25V5.25C14.25 5.11193 14.1381 5 14 5H11.8723C11.7951 5 11.7223 5.03562 11.6749 5.09651L10.0751 7.15349C10.0277 7.21438 9.95488 7.25 9.87773 7.25Z" fill="#F7FF1D"/>
<path fill-rule="evenodd" clip-rule="evenodd" d="M11.4776 4.94303C11.5723 4.82124 11.718 4.75 11.8723 4.75H14C14.2761 4.75 14.5 4.97386 14.5 5.25V11.25C14.5 11.5261 14.2761 11.75 14 11.75H11.8634C11.7193 11.75 11.5821 11.6878 11.4872 11.5793L9.88656 9.75H6.75C6.47386 9.75 6.25 9.52614 6.25 9.25V7.5C6.25 7.22386 6.47386 7 6.75 7H9.87773L11.4776 4.94303ZM14 5.25L11.8723 5.25L10.2724 7.30697C10.1777 7.42876 10.032 7.5 9.87773 7.5H6.75V9.25H9.88656C10.0307 9.25 10.1679 9.31224 10.2628 9.42075L11.8634 11.25H14V5.25ZM12.75 7C12.8881 7 13 7.11193 13 7.25V9.5C13 9.63807 12.8881 9.75 12.75 9.75C12.6119 9.75 12.5 9.63807 12.5 9.5V7.25C12.5 7.11193 12.6119 7 12.75 7Z" fill="#F2CE04"/>
</svg>
