<svg width="16" height="16" viewBox="0 0 16 16" fill="none" xmlns="http://www.w3.org/2000/svg">
<path d="M9.72497 2.00398C9.23346 2.01709 8.74369 2.06791 8.25997 2.15598C7.01147 2.39098 6.06847 2.85798 5.68497 3.43198C5.59286 3.56864 5.53223 3.72405 5.50747 3.88698C5.45447 4.28198 5.67547 4.68198 6.13447 5.02398C7.11847 5.75648 9.02897 6.12898 10.9135 5.95748C12.14 5.84598 13.2185 5.50648 13.8645 5.02398C14.193 4.77998 14.3995 4.50648 14.47 4.22498C14.527 4.00248 14.4995 3.78548 14.392 3.56698C14.1145 3.00648 13.302 2.52598 12.1595 2.24698C11.4414 2.07798 10.7056 1.99572 9.96797 2.00198C9.86097 2.00198 9.75147 2.00198 9.72397 2.00448L9.72497 2.00398ZM6.08597 6.27748C5.98597 6.28748 5.87297 6.32398 5.77947 6.38098C5.71493 6.42444 5.657 6.47698 5.60747 6.53698C5.57247 6.58398 5.53297 6.66598 5.51547 6.72848L5.50397 6.77748V7.43948C5.50397 8.16798 5.50197 8.12898 5.53897 8.25948C5.72647 8.90998 6.64447 9.48448 7.96697 9.78298C8.44347 9.89048 8.90597 9.95298 9.48997 9.98798C9.65997 9.99798 10.34 9.99798 10.51 9.98798C11.08 9.95298 11.537 9.89448 11.996 9.79298C12.5255 9.67398 12.9745 9.52148 13.369 9.32248C13.801 9.10548 14.117 8.85748 14.3025 8.58598C14.3965 8.44898 14.453 8.31598 14.4845 8.16798L14.498 8.10148V6.77748L14.4845 6.72848C14.4593 6.63679 14.4115 6.5529 14.3455 6.48448C14.2511 6.38729 14.1301 6.32023 13.9977 6.29176C13.8653 6.26328 13.7274 6.27467 13.6015 6.32448C13.578 6.33198 13.5155 6.35948 13.461 6.38298C12.703 6.70098 11.7265 6.91198 10.713 6.97648C10.26 7.00598 9.73447 7.00598 9.29097 6.97648C8.24997 6.90998 7.30097 6.70298 6.50597 6.36698C6.45068 6.34366 6.39465 6.32215 6.33797 6.30248C6.25627 6.27845 6.17079 6.26997 6.08597 6.27748ZM6.06447 10.2795C5.77347 10.3205 5.55247 10.5155 5.50947 10.7695C5.49597 10.842 5.49597 12.0195 5.50797 12.1135C5.53297 12.291 5.60747 12.467 5.72647 12.627C6.07047 13.086 6.76747 13.4705 7.70147 13.7185C8.71647 13.9885 9.94897 14.0685 11.1075 13.9375C11.664 13.875 12.199 13.7635 12.66 13.6115C13.7635 13.25 14.4275 12.699 14.494 12.094C14.498 12.059 14.5 11.814 14.5 11.4295C14.5 10.7615 14.5 10.7695 14.465 10.6695C14.4195 10.5572 14.3411 10.4613 14.24 10.3945C14.1922 10.3608 14.1396 10.3345 14.084 10.3165C14.0074 10.2873 13.9258 10.2741 13.844 10.2775C13.7325 10.2775 13.6815 10.289 13.549 10.3455C12.9825 10.5855 12.414 10.748 11.746 10.8595C10.9445 10.9897 10.1309 11.0297 9.32047 10.9785C8.29297 10.916 7.32047 10.709 6.55247 10.3865C6.49997 10.365 6.43547 10.34 6.40997 10.328C6.3008 10.2827 6.18188 10.266 6.06447 10.2795Z" fill="#BCEAFF"/>
<path d="M4.75 8.56248H1C0.723858 8.56248 0.5 8.78634 0.5 9.06248L0.5 11.5C0.5 11.7761 0.723858 12 1 12H4.75C5.02614 12 5.25 12.2238 5.25 12.5V12.9682C5.25 13.386 5.73193 13.6195 6.05982 13.3606L9.50291 10.6424C9.75648 10.4422 9.75648 10.0577 9.50291 9.85754L6.05982 7.13931C5.73193 6.88046 5.25 7.114 5.25 7.53176V8.06248C5.25 8.33862 5.02614 8.56248 4.75 8.56248Z" fill="#00CF00"/>
<path fill-rule="evenodd" clip-rule="evenodd" d="M5.90491 7.33557C5.74097 7.20614 5.5 7.32292 5.5 7.53179V8.06252C5.5 8.47673 5.16421 8.81252 4.75 8.81252H1C0.861929 8.81252 0.75 8.92445 0.75 9.06252L0.75 11.5C0.75 11.6381 0.861929 11.75 1 11.75H4.75C5.16421 11.75 5.5 12.0858 5.5 12.5V12.9682C5.5 13.1771 5.74097 13.2939 5.90491 13.1645L9.348 10.4462C9.47478 10.3461 9.47478 10.1539 9.348 10.0538L5.90491 7.33557ZM5 7.53179C5 6.90516 5.7229 6.55484 6.21473 6.94313L9.65782 9.66136C10.0382 9.96164 10.0382 10.5384 9.65782 10.8387L6.21473 13.5569C5.7229 13.9452 5 13.5949 5 12.9682V12.5C5 12.3619 4.88807 12.25 4.75 12.25H1C0.585787 12.25 0.25 11.9142 0.25 11.5L0.25 9.06252C0.25 8.64831 0.585786 8.31252 1 8.31252H4.75C4.88807 8.31252 5 8.20059 5 8.06252V7.53179Z" fill="#00B500"/>
</svg>
