<svg width="16" height="16" viewBox="0 0 16 16" fill="none" xmlns="http://www.w3.org/2000/svg">
<path d="M5.725 2.00398C5.2335 2.01709 4.74373 2.06791 4.26 2.15598C3.0115 2.39098 2.0685 2.85798 1.685 3.43198C1.59289 3.56864 1.53227 3.72405 1.5075 3.88698C1.4545 4.28198 1.6755 4.68198 2.1345 5.02398C3.1185 5.75648 5.029 6.12898 6.9135 5.95748C8.14 5.84598 9.2185 5.50648 9.8645 5.02398C10.193 4.77998 10.3995 4.50648 10.47 4.22498C10.527 4.00248 10.4995 3.78548 10.392 3.56698C10.1145 3.00648 9.302 2.52598 8.1595 2.24698C7.44142 2.07798 6.70567 1.99572 5.968 2.00198C5.861 2.00198 5.7515 2.00198 5.724 2.00448L5.725 2.00398ZM2.086 6.27748C1.986 6.28748 1.873 6.32398 1.7795 6.38098C1.71497 6.42444 1.65704 6.47698 1.6075 6.53698C1.5725 6.58398 1.533 6.66598 1.5155 6.72848L1.504 6.77748V7.43948C1.504 8.16798 1.502 8.12898 1.539 8.25948C1.7265 8.90998 2.6445 9.48448 3.967 9.78298C4.4435 9.89048 4.906 9.95298 5.49 9.98798C5.66 9.99798 6.34 9.99798 6.51 9.98798C7.08 9.95298 7.537 9.89448 7.996 9.79298C8.5255 9.67398 8.9745 9.52148 9.369 9.32248C9.801 9.10548 10.117 8.85748 10.3025 8.58598C10.3965 8.44898 10.453 8.31598 10.4845 8.16798L10.498 8.10148V6.77748L10.4845 6.72848C10.4593 6.63679 10.4115 6.5529 10.3455 6.48448C10.2512 6.38729 10.1302 6.32023 9.99774 6.29176C9.86533 6.26328 9.72745 6.27467 9.6015 6.32448C9.578 6.33198 9.5155 6.35948 9.461 6.38298C8.703 6.70098 7.7265 6.91198 6.713 6.97648C6.26 7.00598 5.7345 7.00598 5.291 6.97648C4.25 6.90998 3.301 6.70298 2.506 6.36698C2.45071 6.34366 2.39469 6.32215 2.338 6.30248C2.2563 6.27845 2.17082 6.26997 2.086 6.27748ZM2.0645 10.2795C1.7735 10.3205 1.5525 10.5155 1.5095 10.7695C1.496 10.842 1.496 12.0195 1.508 12.1135C1.533 12.291 1.6075 12.467 1.7265 12.627C2.0705 13.086 2.7675 13.4705 3.7015 13.7185C4.7165 13.9885 5.949 14.0685 7.1075 13.9375C7.664 13.875 8.199 13.7635 8.66 13.6115C9.7635 13.25 10.4275 12.699 10.494 12.094C10.498 12.059 10.5 11.814 10.5 11.4295C10.5 10.7615 10.5 10.7695 10.465 10.6695C10.4195 10.5572 10.3411 10.4613 10.24 10.3945C10.1922 10.3608 10.1396 10.3345 10.084 10.3165C10.0075 10.2873 9.92582 10.2741 9.844 10.2775C9.7325 10.2775 9.6815 10.289 9.549 10.3455C8.9825 10.5855 8.414 10.748 7.746 10.8595C6.9445 10.9897 6.13091 11.0297 5.3205 10.9785C4.293 10.916 3.3205 10.709 2.5525 10.3865C2.5 10.365 2.4355 10.34 2.41 10.328C2.30083 10.2827 2.18192 10.266 2.0645 10.2795Z" fill="#BCEAFF"/>
<path d="M10.25 8.56248H6.5C6.22386 8.56248 6 8.78634 6 9.06248V11.5C6 11.7761 6.22386 12 6.5 12H10.25C10.5261 12 10.75 12.2238 10.75 12.5V12.9682C10.75 13.386 11.2319 13.6195 11.5598 13.3606L15.0029 10.6424C15.2565 10.4422 15.2565 10.0577 15.0029 9.85754L11.5598 7.13931C11.2319 6.88046 10.75 7.114 10.75 7.53176V8.06248C10.75 8.33862 10.5261 8.56248 10.25 8.56248Z" fill="#8389CF"/>
<path fill-rule="evenodd" clip-rule="evenodd" d="M11.4049 7.33557C11.241 7.20614 11 7.32292 11 7.53179V8.06252C11 8.47673 10.6642 8.81252 10.25 8.81252H6.5C6.36193 8.81252 6.25 8.92445 6.25 9.06252V11.5C6.25 11.6381 6.36193 11.75 6.5 11.75H10.25C10.6642 11.75 11 12.0858 11 12.5V12.9682C11 13.1771 11.241 13.2939 11.4049 13.1645L14.848 10.4462C14.9748 10.3461 14.9748 10.1539 14.848 10.0538L11.4049 7.33557ZM10.5 7.53179C10.5 6.90516 11.2229 6.55484 11.7147 6.94313L15.1578 9.66136C15.5382 9.96164 15.5382 10.5384 15.1578 10.8387L11.7147 13.5569C11.2229 13.9452 10.5 13.5949 10.5 12.9682V12.5C10.5 12.3619 10.3881 12.25 10.25 12.25H6.5C6.08579 12.25 5.75 11.9142 5.75 11.5V9.06252C5.75 8.64831 6.08579 8.31252 6.5 8.31252H10.25C10.3881 8.31252 10.5 8.20059 10.5 8.06252V7.53179Z" fill="#7074B0"/>
</svg>
