<svg width="16" height="16" viewBox="0 0 16 16" fill="none" xmlns="http://www.w3.org/2000/svg">
<path d="M5.72503 2.00398C5.23352 2.01709 4.74375 2.06791 4.26003 2.15598C3.01153 2.39098 2.06853 2.85798 1.68503 3.43198C1.59292 3.56864 1.53229 3.72405 1.50753 3.88698C1.45453 4.28198 1.67553 4.68198 2.13453 5.02398C3.11853 5.75648 5.02903 6.12898 6.91353 5.95748C8.14003 5.84598 9.21853 5.50648 9.86453 5.02398C10.193 4.77998 10.3995 4.50648 10.47 4.22498C10.527 4.00248 10.4995 3.78548 10.392 3.56698C10.1145 3.00648 9.30203 2.52598 8.15953 2.24698C7.44145 2.07798 6.7057 1.99572 5.96803 2.00198C5.86103 2.00198 5.75153 2.00198 5.72403 2.00448L5.72503 2.00398ZM2.08603 6.27748C1.98603 6.28748 1.87303 6.32398 1.77953 6.38098C1.71499 6.42444 1.65707 6.47698 1.60753 6.53698C1.57253 6.58398 1.53303 6.66598 1.51553 6.72848L1.50403 6.77748V7.43948C1.50403 8.16798 1.50203 8.12898 1.53903 8.25948C1.72653 8.90998 2.64453 9.48448 3.96703 9.78298C4.44353 9.89048 4.90603 9.95298 5.49003 9.98798C5.66003 9.99798 6.34003 9.99798 6.51003 9.98798C7.08003 9.95298 7.53703 9.89448 7.99603 9.79298C8.52553 9.67398 8.97453 9.52148 9.36903 9.32248C9.80103 9.10548 10.117 8.85748 10.3025 8.58598C10.3965 8.44898 10.453 8.31598 10.4845 8.16798L10.498 8.10148V6.77748L10.4845 6.72848C10.4593 6.63679 10.4116 6.5529 10.3455 6.48448C10.2512 6.38729 10.1302 6.32023 9.99777 6.29176C9.86536 6.26328 9.72747 6.27467 9.60153 6.32448C9.57803 6.33198 9.51553 6.35948 9.46103 6.38298C8.70303 6.70098 7.72653 6.91198 6.71303 6.97648C6.26003 7.00598 5.73453 7.00598 5.29103 6.97648C4.25003 6.90998 3.30103 6.70298 2.50603 6.36698C2.45074 6.34366 2.39471 6.32215 2.33803 6.30248C2.25633 6.27845 2.17085 6.26997 2.08603 6.27748ZM2.06453 10.2795C1.77353 10.3205 1.55253 10.5155 1.50953 10.7695C1.49603 10.842 1.49603 12.0195 1.50803 12.1135C1.53303 12.291 1.60753 12.467 1.72653 12.627C2.07053 13.086 2.76753 13.4705 3.70153 13.7185C4.71653 13.9885 5.94903 14.0685 7.10753 13.9375C7.66403 13.875 8.19903 13.7635 8.66003 13.6115C9.76353 13.25 10.4275 12.699 10.494 12.094C10.498 12.059 10.5 11.814 10.5 11.4295C10.5 10.7615 10.5 10.7695 10.465 10.6695C10.4196 10.5572 10.3411 10.4613 10.24 10.3945C10.1922 10.3608 10.1396 10.3345 10.084 10.3165C10.0075 10.2873 9.92585 10.2741 9.84403 10.2775C9.73253 10.2775 9.68153 10.289 9.54903 10.3455C8.98253 10.5855 8.41403 10.748 7.74603 10.8595C6.94452 10.9897 6.13093 11.0297 5.32053 10.9785C4.29303 10.916 3.32053 10.709 2.55253 10.3865C2.50003 10.365 2.43553 10.34 2.41003 10.328C2.30086 10.2827 2.18194 10.266 2.06453 10.2795Z" fill="#BCEAFF"/>
<path d="M14.5693 6.06921L13.1768 4.67674C13.0792 4.57911 12.9209 4.57911 12.8232 4.67674L9.17678 8.32319C9.07915 8.42082 8.92086 8.42082 8.82323 8.32319L7.42678 6.92674C7.32915 6.82911 7.17086 6.82911 7.07323 6.92674L5.68345 8.31652C5.58326 8.41671 5.58628 8.58007 5.69012 8.67649L8.82735 11.5896C8.92432 11.6797 9.07465 11.6786 9.17027 11.5871L14.5653 6.42665C14.6666 6.32971 14.6684 6.16838 14.5693 6.06921Z" fill="#16CA0D"/>
<path fill-rule="evenodd" clip-rule="evenodd" d="M12.6465 4.49996C12.8417 4.3047 13.1583 4.3047 13.3536 4.49996L14.746 5.89244C14.9444 6.09077 14.9408 6.41343 14.7381 6.60731L9.34308 11.7678C9.15183 11.9507 8.85117 11.9529 8.65724 11.7728L5.52 8.85969C5.31233 8.66685 5.30628 8.34013 5.50668 8.13974L6.89646 6.74996C7.09172 6.5547 7.4083 6.5547 7.60356 6.74996L9.00001 8.14641L12.6465 4.49996ZM13 4.85352L9.35356 8.49996C9.1583 8.69522 8.84172 8.69522 8.64646 8.49996L7.25001 7.10352L5.86023 8.49329L8.99747 11.4064L14.3925 6.24599L13 4.85352Z" fill="#12A80B"/>
</svg>
