<svg width="16" height="16" viewBox="0 0 16 16" fill="none" xmlns="http://www.w3.org/2000/svg">
<g clip-path="url(#clip0_710_101)">
<path d="M9.725 2.50398C9.23349 2.51709 8.74372 2.56791 8.26 2.65598C7.0115 2.89098 6.0685 3.35798 5.685 3.93198C5.59289 4.06864 5.53226 4.22405 5.5075 4.38698C5.4545 4.78198 5.6755 5.18198 6.1345 5.52398C7.1185 6.25648 9.029 6.62898 10.9135 6.45748C12.14 6.34598 13.2185 6.00648 13.8645 5.52398C14.193 5.27998 14.3995 5.00648 14.47 4.72498C14.527 4.50248 14.4995 4.28548 14.392 4.06698C14.1145 3.50648 13.302 3.02598 12.1595 2.74698C11.4414 2.57798 10.7057 2.49572 9.968 2.50198C9.861 2.50198 9.7515 2.50198 9.724 2.50448L9.725 2.50398ZM6.086 6.77748C5.986 6.78748 5.873 6.82398 5.7795 6.88098C5.71496 6.92444 5.65704 6.97698 5.6075 7.03698C5.5725 7.08398 5.533 7.16598 5.5155 7.22848L5.504 7.27748V7.93948C5.504 8.66798 5.502 8.62898 5.539 8.75948C5.7265 9.40998 6.6445 9.98448 7.967 10.283C8.4435 10.3905 8.906 10.453 9.49 10.488C9.66 10.498 10.34 10.498 10.51 10.488C11.08 10.453 11.537 10.3945 11.996 10.293C12.5255 10.174 12.9745 10.0215 13.369 9.82248C13.801 9.60548 14.117 9.35748 14.3025 9.08598C14.3965 8.94898 14.453 8.81598 14.4845 8.66798L14.498 8.60148V7.27748L14.4845 7.22848C14.4593 7.13679 14.4115 7.0529 14.3455 6.98448C14.2512 6.88729 14.1302 6.82023 13.9977 6.79176C13.8653 6.76328 13.7274 6.77467 13.6015 6.82448C13.578 6.83198 13.5155 6.85948 13.461 6.88298C12.703 7.20098 11.7265 7.41198 10.713 7.47648C10.26 7.50598 9.7345 7.50598 9.291 7.47648C8.25 7.40998 7.301 7.20298 6.506 6.86698C6.45071 6.84366 6.39468 6.82215 6.338 6.80248C6.2563 6.77845 6.17082 6.76997 6.086 6.77748ZM6.0645 10.7795C5.7735 10.8205 5.5525 11.0155 5.5095 11.2695C5.496 11.342 5.496 12.5195 5.508 12.6135C5.533 12.791 5.6075 12.967 5.7265 13.127C6.0705 13.586 6.7675 13.9705 7.7015 14.2185C8.7165 14.4885 9.949 14.5685 11.1075 14.4375C11.664 14.375 12.199 14.2635 12.66 14.1115C13.7635 13.75 14.4275 13.199 14.494 12.594C14.498 12.559 14.5 12.314 14.5 11.9295C14.5 11.2615 14.5 11.2695 14.465 11.1695C14.4195 11.0572 14.3411 10.9613 14.24 10.8945C14.1922 10.8608 14.1396 10.8345 14.084 10.8165C14.0075 10.7873 13.9258 10.7741 13.844 10.7775C13.7325 10.7775 13.6815 10.789 13.549 10.8455C12.9825 11.0855 12.414 11.248 11.746 11.3595C10.9445 11.4897 10.1309 11.5297 9.3205 11.4785C8.293 11.416 7.3205 11.209 6.5525 10.8865C6.5 10.865 6.4355 10.84 6.41 10.828C6.30083 10.7827 6.18191 10.766 6.0645 10.7795Z" fill="#BCEAFF"/>
</g>
<path d="M4.75 2.56248H1C0.723858 2.56248 0.5 2.78634 0.5 3.06248L0.5 5.49998C0.5 5.77612 0.723858 5.99998 1 5.99998H4.75C5.02614 5.99998 5.25 6.22384 5.25 6.49998V6.96821C5.25 7.38596 5.73193 7.61951 6.05982 7.36065L9.50291 4.64242C9.75648 4.44223 9.75648 4.05773 9.50291 3.85754L6.05982 1.13931C5.73193 0.880455 5.25 1.114 5.25 1.53176V2.06248C5.25 2.33862 5.02614 2.56248 4.75 2.56248Z" fill="#8ABC00"/>
<path fill-rule="evenodd" clip-rule="evenodd" d="M5.90491 1.33557C5.74097 1.20614 5.5 1.32292 5.5 1.53179V2.06252C5.5 2.47673 5.16421 2.81252 4.75 2.81252L1 2.81252C0.861929 2.81252 0.75 2.92445 0.75 3.06252L0.75 5.50002C0.75 5.63809 0.861929 5.75002 1 5.75002H4.75C5.16421 5.75002 5.5 6.08581 5.5 6.50002V6.96825C5.5 7.17712 5.74097 7.2939 5.90491 7.16447L9.348 4.44624C9.47478 4.34615 9.47478 4.15389 9.348 4.0538L5.90491 1.33557ZM5 1.53179C5 0.905163 5.7229 0.554844 6.21473 0.943132L9.65782 3.66136C10.0382 3.96164 10.0382 4.5384 9.65782 4.83868L6.21473 7.55691C5.7229 7.9452 5 7.59488 5 6.96825V6.50002C5 6.36195 4.88807 6.25002 4.75 6.25002H1C0.585787 6.25002 0.25 5.91423 0.25 5.50002L0.25 3.06252C0.25 2.64831 0.585786 2.31252 1 2.31252H4.75C4.88807 2.31252 5 2.20059 5 2.06252V1.53179Z" fill="#729B00"/>
<defs>
<clipPath id="clip0_710_101">
<rect width="12" height="12" fill="white" transform="translate(4 2.5)"/>
</clipPath>
</defs>
</svg>
