<svg width="16" height="16" viewBox="0 0 16 16" fill="none" xmlns="http://www.w3.org/2000/svg">
<path d="M7.725 2.00398C7.23349 2.01709 6.74372 2.06791 6.26 2.15598C5.0115 2.39098 4.0685 2.85798 3.685 3.43198C3.59289 3.56864 3.53226 3.72405 3.5075 3.88698C3.4545 4.28198 3.6755 4.68198 4.1345 5.02398C5.1185 5.75648 7.029 6.12898 8.9135 5.95748C10.14 5.84598 11.2185 5.50648 11.8645 5.02398C12.193 4.77998 12.3995 4.50648 12.47 4.22498C12.527 4.00248 12.4995 3.78548 12.392 3.56698C12.1145 3.00648 11.302 2.52598 10.1595 2.24698C9.44142 2.07798 8.70567 1.99572 7.968 2.00198C7.861 2.00198 7.7515 2.00198 7.724 2.00448L7.725 2.00398ZM4.086 6.27748C3.986 6.28748 3.873 6.32398 3.7795 6.38098C3.71496 6.42444 3.65704 6.47698 3.6075 6.53698C3.5725 6.58398 3.533 6.66598 3.5155 6.72848L3.504 6.77748V7.43948C3.504 8.16798 3.502 8.12898 3.539 8.25948C3.7265 8.90998 4.6445 9.48448 5.967 9.78298C6.4435 9.89048 6.906 9.95298 7.49 9.98798C7.66 9.99798 8.34 9.99798 8.51 9.98798C9.08 9.95298 9.537 9.89448 9.996 9.79298C10.5255 9.67398 10.9745 9.52148 11.369 9.32248C11.801 9.10548 12.117 8.85748 12.3025 8.58598C12.3965 8.44898 12.453 8.31598 12.4845 8.16798L12.498 8.10148V6.77748L12.4845 6.72848C12.4593 6.63679 12.4115 6.5529 12.3455 6.48448C12.2512 6.38729 12.1302 6.32023 11.9977 6.29175C11.8653 6.26328 11.7274 6.27467 11.6015 6.32448C11.578 6.33198 11.5155 6.35948 11.461 6.38298C10.703 6.70098 9.7265 6.91198 8.713 6.97648C8.26 7.00598 7.7345 7.00598 7.291 6.97648C6.25 6.90998 5.301 6.70298 4.506 6.36698C4.45071 6.34366 4.39468 6.32215 4.338 6.30248C4.2563 6.27845 4.17082 6.26997 4.086 6.27748ZM4.0645 10.2795C3.7735 10.3205 3.5525 10.5155 3.5095 10.7695C3.496 10.842 3.496 12.0195 3.508 12.1135C3.533 12.291 3.6075 12.467 3.7265 12.627C4.0705 13.086 4.7675 13.4705 5.7015 13.7185C6.7165 13.9885 7.949 14.0685 9.1075 13.9375C9.664 13.875 10.199 13.7635 10.66 13.6115C11.7635 13.25 12.4275 12.699 12.494 12.094C12.498 12.059 12.5 11.814 12.5 11.4295C12.5 10.7615 12.5 10.7695 12.465 10.6695C12.4195 10.5572 12.3411 10.4613 12.24 10.3945C12.1922 10.3608 12.1396 10.3345 12.084 10.3165C12.0075 10.2873 11.9258 10.2741 11.844 10.2775C11.7325 10.2775 11.6815 10.289 11.549 10.3455C10.9825 10.5855 10.414 10.748 9.746 10.8595C8.94449 10.9897 8.1309 11.0297 7.3205 10.9785C6.293 10.916 5.3205 10.709 4.5525 10.3865C4.5 10.365 4.4355 10.34 4.41 10.328C4.30083 10.2827 4.18191 10.266 4.0645 10.2795Z" fill="#BCEAFF"/>
<path d="M14.7904 0.5H12.8122C12.7358 0.5 12.6636 0.534937 12.6161 0.594845L9.48248 4.55403C9.35276 4.71793 9.46949 4.95918 9.67851 4.95918H11.8336C12.0223 4.95918 12.143 5.16018 12.0543 5.32671L9.48893 10.1433C9.34976 10.4046 9.70001 10.6482 9.89655 10.4268L15.6308 3.96698C15.7739 3.80572 15.6595 3.55102 15.4438 3.55102H13.2391C13.0248 3.55102 12.9098 3.29905 13.0503 3.13719L14.9792 0.913833C15.1197 0.751968 15.0047 0.5 14.7904 0.5Z" fill="#F67D11"/>
<path fill-rule="evenodd" clip-rule="evenodd" d="M12.4201 0.43969C12.5149 0.319874 12.6593 0.25 12.8122 0.25H14.7904C15.219 0.25 15.4489 0.753936 15.168 1.07767L13.2391 3.30102H15.4438C15.8751 3.30102 16.104 3.81043 15.8177 4.13295L10.0835 10.5927C9.69041 11.0356 8.9899 10.5484 9.26826 10.0258L11.8336 5.20918H9.67849C9.26044 5.20918 9.02698 4.72667 9.28643 4.39887L12.4201 0.43969ZM14.7904 0.75L12.8122 0.750001L9.67849 4.70918H11.8336C12.211 4.70918 12.4523 5.11119 12.2749 5.44423L9.70957 10.2608L15.4438 3.80102H13.2391C12.8105 3.80102 12.5805 3.29708 12.8614 2.97335L14.7904 0.75Z" fill="#D6632B"/>
</svg>
