<svg width="16" height="16" viewBox="0 0 16 16" fill="none" xmlns="http://www.w3.org/2000/svg">
<path d="M7.72497 2.00398C7.23346 2.01709 6.74369 2.06791 6.25997 2.15598C5.01147 2.39098 4.06847 2.85798 3.68497 3.43198C3.59286 3.56864 3.53223 3.72405 3.50747 3.88698C3.45447 4.28198 3.67547 4.68198 4.13447 5.02398C5.11847 5.75648 7.02897 6.12898 8.91347 5.95748C10.14 5.84598 11.2185 5.50648 11.8645 5.02398C12.193 4.77998 12.3995 4.50648 12.47 4.22498C12.527 4.00248 12.4995 3.78548 12.392 3.56698C12.1145 3.00648 11.302 2.52598 10.1595 2.24698C9.44139 2.07798 8.70563 1.99572 7.96797 2.00198C7.86097 2.00198 7.75147 2.00198 7.72397 2.00448L7.72497 2.00398ZM4.08597 6.27748C3.98597 6.28748 3.87297 6.32398 3.77947 6.38098C3.71493 6.42444 3.657 6.47698 3.60747 6.53698C3.57247 6.58398 3.53297 6.66598 3.51547 6.72848L3.50397 6.77748V7.43948C3.50397 8.16798 3.50197 8.12898 3.53897 8.25948C3.72647 8.90998 4.64447 9.48448 5.96697 9.78298C6.44347 9.89048 6.90597 9.95298 7.48997 9.98798C7.65997 9.99798 8.33997 9.99798 8.50997 9.98798C9.07997 9.95298 9.53697 9.89448 9.99597 9.79298C10.5255 9.67398 10.9745 9.52148 11.369 9.32248C11.801 9.10548 12.117 8.85748 12.3025 8.58598C12.3965 8.44898 12.453 8.31598 12.4845 8.16798L12.498 8.10148V6.77748L12.4845 6.72848C12.4593 6.63679 12.4115 6.5529 12.3455 6.48448C12.2511 6.38729 12.1301 6.32023 11.9977 6.29175C11.8653 6.26328 11.7274 6.27467 11.6015 6.32448C11.578 6.33198 11.5155 6.35948 11.461 6.38298C10.703 6.70098 9.72647 6.91198 8.71297 6.97648C8.25997 7.00598 7.73447 7.00598 7.29097 6.97648C6.24997 6.90998 5.30097 6.70298 4.50597 6.36698C4.45068 6.34366 4.39465 6.32215 4.33797 6.30248C4.25627 6.27845 4.17079 6.26997 4.08597 6.27748ZM4.06447 10.2795C3.77347 10.3205 3.55247 10.5155 3.50947 10.7695C3.49597 10.842 3.49597 12.0195 3.50797 12.1135C3.53297 12.291 3.60747 12.467 3.72647 12.627C4.07047 13.086 4.76747 13.4705 5.70147 13.7185C6.71647 13.9885 7.94897 14.0685 9.10747 13.9375C9.66397 13.875 10.199 13.7635 10.66 13.6115C11.7635 13.25 12.4275 12.699 12.494 12.094C12.498 12.059 12.5 11.814 12.5 11.4295C12.5 10.7615 12.5 10.7695 12.465 10.6695C12.4195 10.5572 12.3411 10.4613 12.24 10.3945C12.1922 10.3608 12.1396 10.3345 12.084 10.3165C12.0074 10.2873 11.9258 10.2741 11.844 10.2775C11.7325 10.2775 11.6815 10.289 11.549 10.3455C10.9825 10.5855 10.414 10.748 9.74597 10.8595C8.94446 10.9897 8.13087 11.0297 7.32047 10.9785C6.29297 10.916 5.32047 10.709 4.55247 10.3865C4.49997 10.365 4.43547 10.34 4.40997 10.328C4.3008 10.2827 4.18188 10.266 4.06447 10.2795Z" fill="#BCEAFF"/>
<path d="M14.7903 0.5H12.8121C12.7357 0.5 12.6635 0.534937 12.6161 0.594845L9.48242 4.55403C9.35269 4.71793 9.46942 4.95918 9.67845 4.95918H11.8336C12.0222 4.95918 12.1429 5.16018 12.0542 5.32671L9.48887 10.1433C9.3497 10.4046 9.69995 10.6482 9.89649 10.4268L15.6307 3.96698C15.7739 3.80572 15.6594 3.55102 15.4438 3.55102H13.239C13.0247 3.55102 12.9098 3.29905 13.0502 3.13719L14.9792 0.913833C15.1196 0.751968 15.0046 0.5 14.7903 0.5Z" fill="#F67D11"/>
<path fill-rule="evenodd" clip-rule="evenodd" d="M12.42 0.43969C12.5149 0.319874 12.6593 0.25 12.8121 0.25H14.7903C15.2189 0.25 15.4489 0.753936 15.168 1.07767L13.239 3.30102H15.4437C15.875 3.30102 16.104 3.81043 15.8177 4.13295L10.0834 10.5927C9.69034 11.0356 8.98984 10.5484 9.2682 10.0258L11.8336 5.20918H9.67842C9.26038 5.20918 9.02692 4.72667 9.28637 4.39887L12.42 0.43969ZM14.7903 0.75L12.8121 0.750001L9.67842 4.70918H11.8336C12.2109 4.70918 12.4522 5.11119 12.2749 5.44423L9.70951 10.2608L15.4437 3.80102H13.239C12.8104 3.80102 12.5805 3.29708 12.8613 2.97335L14.7903 0.75Z" fill="#D6632B"/>
</svg>
