<svg width="16" height="16" viewBox="0 0 16 16" fill="none" xmlns="http://www.w3.org/2000/svg">
<path d="M7.22582 2.00398C6.73432 2.01709 6.24455 2.06791 5.76082 2.15598C4.51232 2.39098 3.56932 2.85798 3.18582 3.43198C3.09371 3.56864 3.03309 3.72405 3.00832 3.88698C2.95532 4.28198 3.17632 4.68198 3.63532 5.02398C4.61932 5.75648 6.52982 6.12898 8.41432 5.95748C9.64082 5.84598 10.7193 5.50648 11.3653 5.02398C11.6938 4.77998 11.9003 4.50648 11.9708 4.22498C12.0278 4.00248 12.0003 3.78548 11.8928 3.56698C11.6153 3.00648 10.8028 2.52598 9.66032 2.24698C8.94225 2.07798 8.20649 1.99572 7.46882 2.00198C7.36182 2.00198 7.25232 2.00198 7.22482 2.00448L7.22582 2.00398ZM3.58682 6.27748C3.48682 6.28748 3.37382 6.32398 3.28032 6.38098C3.21579 6.42445 3.15786 6.47699 3.10832 6.53698C3.07332 6.58398 3.03382 6.66598 3.01632 6.72848L3.00482 6.77748V7.43948C3.00482 8.16798 3.00282 8.12898 3.03982 8.25948C3.22732 8.90998 4.14532 9.48448 5.46782 9.78298C5.94432 9.89048 6.40682 9.95298 6.99082 9.98798C7.16082 9.99798 7.84082 9.99798 8.01082 9.98798C8.58082 9.95298 9.03782 9.89448 9.49682 9.79298C10.0263 9.67398 10.4753 9.52148 10.8698 9.32248C11.3018 9.10548 11.6178 8.85748 11.8033 8.58598C11.8973 8.44898 11.9538 8.31598 11.9853 8.16798L11.9988 8.10148V6.77748L11.9853 6.72848C11.9601 6.6368 11.9123 6.5529 11.8463 6.48448C11.752 6.3873 11.631 6.32023 11.4986 6.29176C11.3662 6.26328 11.2283 6.27467 11.1023 6.32448C11.0788 6.33198 11.0163 6.35948 10.9618 6.38298C10.2038 6.70098 9.22732 6.91198 8.21382 6.97648C7.76082 7.00598 7.23532 7.00598 6.79182 6.97648C5.75082 6.90998 4.80182 6.70298 4.00682 6.36698C3.95154 6.34367 3.89551 6.32215 3.83882 6.30248C3.75713 6.27845 3.67165 6.26997 3.58682 6.27748ZM3.56532 10.2795C3.27432 10.3205 3.05332 10.5155 3.01032 10.7695C2.99682 10.842 2.99682 12.0195 3.00882 12.1135C3.03382 12.291 3.10832 12.467 3.22732 12.627C3.57132 13.086 4.26832 13.4705 5.20232 13.7185C6.21732 13.9885 7.44982 14.0685 8.60832 13.9375C9.16482 13.875 9.69982 13.7635 10.1608 13.6115C11.2643 13.25 11.9283 12.699 11.9948 12.094C11.9988 12.059 12.0008 11.814 12.0008 11.4295C12.0008 10.7615 12.0008 10.7695 11.9658 10.6695C11.9204 10.5572 11.8419 10.4613 11.7408 10.3945C11.693 10.3608 11.6404 10.3345 11.5848 10.3165C11.5083 10.2873 11.4266 10.2741 11.3448 10.2775C11.2333 10.2775 11.1823 10.289 11.0498 10.3455C10.4833 10.5855 9.91482 10.748 9.24682 10.8595C8.44532 10.9897 7.63173 11.0297 6.82132 10.9785C5.79382 10.916 4.82132 10.709 4.05332 10.3865C4.00082 10.365 3.93632 10.34 3.91082 10.328C3.80165 10.2827 3.68274 10.266 3.56532 10.2795Z" fill="#BCEAFF"/>
</svg>
