<svg width="16" height="16" viewBox="0 0 16 16" fill="none" xmlns="http://www.w3.org/2000/svg">
<g clip-path="url(#clip0_710_120)">
<g clip-path="url(#clip1_710_120)">
<path d="M5.72503 1.50398C5.23352 1.51709 4.74375 1.56791 4.26003 1.65598C3.01153 1.89098 2.06853 2.35798 1.68503 2.93198C1.59292 3.06864 1.53229 3.22405 1.50753 3.38698C1.45453 3.78198 1.67553 4.18198 2.13453 4.52398C3.11853 5.25648 5.02903 5.62898 6.91353 5.45748C8.14003 5.34598 9.21853 5.00648 9.86453 4.52398C10.193 4.27998 10.3995 4.00648 10.47 3.72498C10.527 3.50248 10.4995 3.28548 10.392 3.06698C10.1145 2.50648 9.30203 2.02598 8.15953 1.74698C7.44145 1.57798 6.7057 1.49572 5.96803 1.50198C5.86103 1.50198 5.75153 1.50198 5.72403 1.50448L5.72503 1.50398ZM2.08603 5.77748C1.98603 5.78748 1.87303 5.82398 1.77953 5.88098C1.71499 5.92444 1.65707 5.97698 1.60753 6.03698C1.57253 6.08398 1.53303 6.16598 1.51553 6.22848L1.50403 6.27748V6.93948C1.50403 7.66798 1.50203 7.62898 1.53903 7.75948C1.72653 8.40998 2.64453 8.98448 3.96703 9.28298C4.44353 9.39048 4.90603 9.45298 5.49003 9.48798C5.66003 9.49798 6.34003 9.49798 6.51003 9.48798C7.08003 9.45298 7.53703 9.39448 7.99603 9.29298C8.52553 9.17398 8.97453 9.02148 9.36903 8.82248C9.80103 8.60548 10.117 8.35748 10.3025 8.08598C10.3965 7.94898 10.453 7.81598 10.4845 7.66798L10.498 7.60148V6.27748L10.4845 6.22848C10.4593 6.13679 10.4116 6.0529 10.3455 5.98448C10.2512 5.88729 10.1302 5.82023 9.99777 5.79176C9.86536 5.76328 9.72747 5.77467 9.60153 5.82448C9.57803 5.83198 9.51553 5.85948 9.46103 5.88298C8.70303 6.20098 7.72653 6.41198 6.71303 6.47648C6.26003 6.50598 5.73453 6.50598 5.29103 6.47648C4.25003 6.40998 3.30103 6.20298 2.50603 5.86698C2.45074 5.84366 2.39471 5.82215 2.33803 5.80248C2.25633 5.77845 2.17085 5.76997 2.08603 5.77748ZM2.06453 9.77948C1.77353 9.82048 1.55253 10.0155 1.50953 10.2695C1.49603 10.342 1.49603 11.5195 1.50803 11.6135C1.53303 11.791 1.60753 11.967 1.72653 12.127C2.07053 12.586 2.76753 12.9705 3.70153 13.2185C4.71653 13.4885 5.94903 13.5685 7.10753 13.4375C7.66403 13.375 8.19903 13.2635 8.66003 13.1115C9.76353 12.75 10.4275 12.199 10.494 11.594C10.498 11.559 10.5 11.314 10.5 10.9295C10.5 10.2615 10.5 10.2695 10.465 10.1695C10.4196 10.0572 10.3411 9.96128 10.24 9.89448C10.1922 9.86083 10.1396 9.83454 10.084 9.81648C10.0075 9.78733 9.92585 9.77406 9.84403 9.77748C9.73253 9.77748 9.68153 9.78898 9.54903 9.84548C8.98253 10.0855 8.41403 10.248 7.74603 10.3595C6.94452 10.4897 6.13093 10.5297 5.32053 10.4785C4.29303 10.416 3.32053 10.209 2.55253 9.88648C2.50003 9.86498 2.43553 9.83998 2.41003 9.82798C2.30086 9.7827 2.18194 9.76601 2.06453 9.77948Z" fill="#BCEAFF"/>
</g>
<path d="M8.09285 6.97094C8.21476 7.1943 8.34132 7.40712 8.46027 7.62289C8.46913 7.64565 8.47503 7.66082 8.49149 7.68062C8.5438 7.74762 8.97385 7.72877 9.02156 7.64906C9.14146 7.46263 9.26137 7.27621 9.37072 7.08515C9.41083 7.00839 9.46232 7.00583 9.53026 7.02307C9.99235 7.13152 10.4173 7.32431 10.8097 7.5909C10.8684 7.62923 10.8831 7.66716 10.8658 7.73505C10.7986 7.94463 10.745 8.16642 10.6854 8.37304C10.6681 8.44093 10.6706 8.49236 10.7322 8.53827C10.7698 8.56733 10.8073 8.5964 10.8297 8.63137C10.928 8.79404 11.055 8.80576 11.2175 8.75126C11.38 8.69676 11.5543 8.67261 11.7121 8.62865C11.7835 8.60963 11.8151 8.62352 11.8539 8.6783C12.0387 8.97329 12.1808 9.2936 12.2745 9.62406C12.3141 9.7484 12.3415 9.88624 12.3659 10.0165C12.3701 10.0498 12.3469 10.1025 12.3195 10.1219C12.1291 10.2397 11.9282 10.3528 11.7319 10.4554C11.6665 10.4896 11.6374 10.5271 11.6488 10.6013C11.6559 10.6422 11.6584 10.6936 11.6504 10.7404C11.6001 10.926 11.693 11.0296 11.8542 11.1067C12.0078 11.1867 12.1491 11.2802 12.2905 11.3736C12.3251 11.3951 12.3516 11.4634 12.3483 11.4997C12.2422 11.969 12.0518 12.4012 11.7799 12.804C11.7415 12.8627 11.7005 12.8699 11.6326 12.8526C11.4228 12.7857 11.2009 12.7323 10.9941 12.673C10.9338 12.6528 10.8823 12.6554 10.8438 12.714C10.8147 12.7516 10.778 12.7921 10.7354 12.8174C10.5724 12.9157 10.5711 13.0473 10.6255 13.2096C10.6799 13.3718 10.7145 13.5506 10.7461 13.7217C10.7503 13.755 10.73 13.8153 10.695 13.8377C10.2822 14.1031 9.84156 14.2746 9.36085 14.3656C9.29712 14.3817 9.26252 14.3602 9.2313 14.3024C9.1288 14.1065 9.01111 13.9164 8.9086 13.7205C8.87444 13.6551 8.83688 13.6261 8.7626 13.6375C8.72926 13.6417 8.68537 13.6413 8.64908 13.638C8.4558 13.5909 8.33846 13.6715 8.2519 13.8537C8.18687 14.0013 8.07964 14.1304 7.99646 14.2763C7.961 14.3425 7.92301 14.3573 7.85507 14.3401C7.38243 14.227 6.9499 14.0372 6.54694 13.7659C6.48828 13.7276 6.48112 13.6867 6.49844 13.6188C6.56559 13.4093 6.61925 13.1875 6.67881 12.9808C6.69908 12.9205 6.69656 12.8691 6.63791 12.8308C6.60331 12.8093 6.56575 12.7802 6.55099 12.7423C6.44089 12.5493 6.28938 12.5646 6.10115 12.6204C5.94625 12.6719 5.7825 12.7007 5.62634 12.7265C5.593 12.7307 5.5297 12.703 5.51029 12.6756C5.24495 12.2634 5.07371 11.8234 4.9907 11.3403C4.98649 11.307 5.01436 11.2438 5.04475 11.232C5.24271 11.1112 5.44657 11.0057 5.64453 10.885C5.67957 10.8626 5.69519 10.8129 5.71377 10.7707C5.71842 10.7602 5.70956 10.7374 5.71125 10.7193C5.78054 10.4477 5.6489 10.2893 5.41386 10.1798C5.29487 10.1213 5.17756 10.0447 5.07081 9.97265C5.03621 9.95117 5.01259 9.89048 5.01598 9.85422C5.11907 9.37733 5.31711 8.94211 5.589 8.53931C5.62742 8.48068 5.66076 8.47644 5.7211 8.49663C5.93083 8.56352 6.15281 8.61691 6.35958 8.67621C6.42752 8.69345 6.47901 8.69088 6.51743 8.63226C6.54656 8.59471 6.58329 8.55422 6.62592 8.52889C6.78885 8.43055 6.78255 8.30197 6.7311 8.14728C6.6767 7.985 6.65269 7.8109 6.60589 7.64567C6.58396 7.56685 6.60549 7.53227 6.67092 7.49807C7.12002 7.23595 7.58345 7.05561 8.09285 6.97094ZM7.3735 11.1469C7.64047 11.8554 8.43927 12.1997 9.14877 11.9323C9.84771 11.6603 10.2083 10.8561 9.93672 10.1581C9.66511 9.46018 8.8663 9.11588 8.16441 9.38028C7.45492 9.64764 7.09895 10.4413 7.3735 11.1469Z" fill="#DD9936"/>
<path fill-rule="evenodd" clip-rule="evenodd" d="M6.87101 7.67168C6.88249 7.71908 6.89269 7.76566 6.90219 7.80908C6.90478 7.82088 6.90731 7.83244 6.9098 7.84372C6.92834 7.92769 6.94556 8.00042 6.96817 8.06786L6.96836 8.06843C6.99713 8.15492 7.02949 8.27719 7.00437 8.40683C6.97587 8.55386 6.88395 8.66522 6.75515 8.74297L6.75382 8.74376C6.75383 8.74378 6.74998 8.74632 6.7426 8.75364C6.73567 8.7605 6.72787 8.76933 6.7192 8.7802C6.66936 8.85121 6.59719 8.90603 6.50385 8.92677C6.41967 8.94548 6.34358 8.93011 6.29814 8.91858L6.2944 8.91763L6.2907 8.91657C6.22218 8.89692 6.14675 8.87661 6.06835 8.85551C5.96119 8.82667 5.8485 8.79633 5.74041 8.76416C5.53059 9.09209 5.37451 9.43972 5.28214 9.8131C5.36332 9.86641 5.44348 9.91565 5.52206 9.95447C5.65994 10.019 5.80022 10.1123 5.88969 10.2579C5.97763 10.4009 5.99834 10.5642 5.96394 10.7355C5.96437 10.7404 5.96474 10.7457 5.96495 10.7512C5.96537 10.762 5.96542 10.778 5.96308 10.7969C5.96077 10.8156 5.95553 10.8422 5.94259 10.8715C5.94254 10.8716 5.94231 10.8722 5.94193 10.8731C5.93833 10.8818 5.92082 10.9243 5.90741 10.9502C5.88951 10.9848 5.85185 11.0493 5.7791 11.0958L5.77475 11.0985L5.77472 11.0985C5.67202 11.1611 5.56838 11.2195 5.46907 11.2754L5.46733 11.2764C5.39479 11.3172 5.32451 11.3568 5.25562 11.3972C5.33262 11.7794 5.47047 12.1317 5.6734 12.465C5.79725 12.4434 5.91363 12.4193 6.02225 12.3832L6.02618 12.3819L6.03015 12.3807C6.12618 12.3523 6.26108 12.3175 6.39907 12.3419C6.55953 12.3704 6.68236 12.4689 6.76722 12.6168C6.76803 12.6173 6.76888 12.6179 6.76979 12.6184L6.77473 12.6215L6.77469 12.6215C6.84976 12.6706 6.9109 12.7453 6.93238 12.845C6.95072 12.9301 6.93368 13.0056 6.91777 13.0546C6.89844 13.1219 6.87847 13.1957 6.85774 13.2723C6.82796 13.3823 6.7966 13.4982 6.76329 13.6089C7.09423 13.8206 7.44588 13.9748 7.82598 14.075C7.84987 14.0371 7.87401 14.0008 7.89594 13.9679C7.90511 13.9541 7.9139 13.9409 7.92212 13.9284C7.96627 13.8612 7.99954 13.8066 8.02315 13.753L8.02459 13.7497L8.02612 13.7465C8.08015 13.6328 8.15942 13.516 8.28574 13.4433C8.4124 13.3703 8.55118 13.3614 8.68622 13.3901C8.70417 13.391 8.7208 13.3906 8.72953 13.3897C8.80478 13.3789 8.89506 13.3844 8.98091 13.4368C9.06115 13.4858 9.10518 13.5569 9.13016 13.6046C9.17895 13.6979 9.23171 13.7904 9.28714 13.8876L9.28822 13.8895C9.3273 13.958 9.36773 14.0289 9.40721 14.1013C9.79196 14.0186 10.1475 13.8794 10.4831 13.6754C10.4565 13.5371 10.428 13.4067 10.3885 13.2891C10.3569 13.1947 10.3265 13.0693 10.3544 12.9377C10.3855 12.7911 10.4784 12.6806 10.6062 12.6034L10.6075 12.6026C10.6075 12.6026 10.6114 12.6001 10.6188 12.5927C10.6257 12.5859 10.6335 12.5771 10.6422 12.5662C10.6913 12.4962 10.7634 12.4401 10.858 12.4197C10.943 12.4013 11.0184 12.4182 11.0675 12.4341C11.1348 12.4533 11.2087 12.4732 11.2854 12.4938C11.3957 12.5235 11.5119 12.5548 11.6228 12.588C11.8342 12.2586 11.9877 11.9097 12.0825 11.536C11.9672 11.4602 11.8579 11.3908 11.7422 11.3303C11.6456 11.2836 11.5345 11.2133 11.4616 11.0977C11.3833 10.9736 11.3704 10.8327 11.4049 10.6917C11.4053 10.6871 11.4055 10.6812 11.4054 10.6742C11.4051 10.6633 11.404 10.6528 11.4026 10.6445L11.4016 10.6393L11.4017 10.6393C11.39 10.5629 11.3947 10.4705 11.4484 10.3829C11.4974 10.3028 11.5684 10.2588 11.6162 10.2339C11.778 10.1493 11.9425 10.0576 12.1009 9.96245C12.0821 9.8687 12.0618 9.77998 12.0363 9.70004L12.0351 9.69616L12.034 9.69224C11.9553 9.41465 11.8398 9.14437 11.6913 8.89212C11.6464 8.90285 11.6017 8.91253 11.5599 8.92159C11.5464 8.92453 11.5331 8.92741 11.5202 8.93024C11.4375 8.94839 11.3646 8.96568 11.297 8.98833C11.1974 9.02173 11.0704 9.04893 10.9376 9.01501C10.7984 8.97941 10.6955 8.8882 10.622 8.77086C10.6212 8.77011 10.6202 8.76917 10.619 8.76803C10.6153 8.76473 10.6104 8.76056 10.6035 8.75503C10.5969 8.74966 10.5897 8.74413 10.5807 8.73715C10.513 8.6861 10.4571 8.61449 10.4355 8.51943C10.416 8.43397 10.4314 8.35754 10.4432 8.31128L10.4442 8.30755L10.4452 8.30384C10.465 8.23539 10.4854 8.16001 10.5066 8.08168C10.5358 7.97368 10.5665 7.86006 10.5992 7.7512C10.2709 7.53821 9.92049 7.3807 9.54439 7.28401C9.44404 7.45444 9.33726 7.62046 9.23357 7.78169L9.23302 7.78254C9.1897 7.85164 9.12726 7.88597 9.09687 7.90079C9.05913 7.9192 9.01998 7.93131 8.98649 7.93966C8.91863 7.95658 8.84199 7.96585 8.7714 7.96956C8.70063 7.97327 8.62449 7.972 8.5569 7.96305C8.52363 7.95865 8.48478 7.95141 8.44678 7.93847C8.41836 7.9288 8.34998 7.90313 8.29759 7.83844C8.2624 7.79555 8.24425 7.75598 8.23356 7.72948C8.18162 7.63559 8.12815 7.542 8.0733 7.44599C8.06908 7.43861 8.06486 7.43122 8.06063 7.42381C8.02808 7.36683 7.99511 7.30904 7.96209 7.2504C7.5797 7.33298 7.22195 7.47503 6.87101 7.67168ZM9.59232 7.20098C9.59236 7.20092 9.59236 7.20093 9.59231 7.20102L9.59232 7.20098ZM10.6745 7.80127C10.6745 7.80127 10.6742 7.8011 10.6738 7.80077L10.6745 7.80127ZM11.7813 8.86918C11.7813 8.86921 11.7806 8.86936 11.7793 8.86957C11.7807 8.86925 11.7813 8.86915 11.7813 8.86918ZM11.7013 12.6119C11.7013 12.6119 11.7007 12.6118 11.6994 12.6116L11.7013 12.6119ZM10.5605 13.627L10.5598 13.6275L10.5605 13.627ZM9.45263 14.1859C9.45262 14.186 9.45233 14.1855 9.45177 14.1845L9.45263 14.1859ZM7.77486 14.1605C7.77486 14.1605 7.77508 14.1601 7.77554 14.1594C7.7751 14.1602 7.77487 14.1605 7.77486 14.1605ZM7.91729 14.098C7.91817 14.0981 7.91864 14.0982 7.91865 14.0983C7.91865 14.0983 7.91822 14.0982 7.91729 14.098ZM6.73918 13.6879C6.73914 13.6879 6.73922 13.6873 6.73948 13.686L6.73918 13.6879ZM5.63586 8.73204C5.6358 8.73196 5.637 8.73222 5.6396 8.73304C5.63721 8.73252 5.63591 8.73211 5.63586 8.73204ZM6.84629 7.5769C6.84605 7.57595 6.84597 7.57549 6.84599 7.5755L6.84629 7.5769ZM6.78149 7.72271C6.78142 7.7227 6.78222 7.72216 6.78408 7.72112C6.78248 7.72221 6.78155 7.72273 6.78149 7.72271ZM6.5495 7.27954C7.01968 7.00573 7.51025 6.8144 8.0519 6.72437L8.2272 6.69523L8.31233 6.85122C8.37199 6.96052 8.433 7.06764 8.49479 7.1758L8.50776 7.19851C8.55909 7.28836 8.61099 7.37919 8.66179 7.47069C8.68607 7.47185 8.71465 7.47185 8.74518 7.47025C8.78462 7.46818 8.82002 7.46381 8.84686 7.4586C8.95396 7.2919 9.05719 7.12952 9.15185 6.96437C9.19282 6.88821 9.26029 6.81252 9.36686 6.77987C9.46028 6.75125 9.54541 6.76914 9.58949 6.78021C10.0819 6.89606 10.5336 7.10141 10.9486 7.38306C10.9984 7.41593 11.064 7.47073 11.0993 7.56127C11.135 7.65311 11.1229 7.73894 11.1081 7.7969L11.1062 7.8042L11.1039 7.81138C11.0631 7.93875 11.0294 8.06349 10.9946 8.19255C10.9776 8.25571 10.9603 8.31991 10.9417 8.38595C10.9738 8.4139 11.0115 8.45154 11.0404 8.49677L11.0438 8.50209L11.0437 8.50213C11.0536 8.51845 11.0609 8.52684 11.0647 8.5306C11.067 8.53059 11.0702 8.53045 11.0747 8.52996C11.0881 8.52847 11.1085 8.52419 11.138 8.51428C11.233 8.48243 11.3285 8.4604 11.413 8.44186C11.4285 8.43845 11.4436 8.43518 11.4582 8.432C11.5272 8.41702 11.5872 8.404 11.6451 8.38786L11.6478 8.38713L11.6478 8.38714C11.7013 8.37287 11.7877 8.35681 11.8813 8.39111C11.975 8.42546 12.0293 8.49335 12.058 8.53382L12.0621 8.53962L12.0658 8.54564C12.2624 8.85943 12.4138 9.20013 12.5139 9.55213C12.5581 9.69176 12.5876 9.84189 12.6117 9.97043L12.6131 9.97777L12.614 9.98517C12.624 10.0639 12.6019 10.1333 12.5834 10.1753C12.5649 10.2172 12.5286 10.2803 12.4639 10.3261L12.4576 10.3305L12.451 10.3346C12.2734 10.4445 12.0874 10.5501 11.9047 10.647C11.9067 10.6898 11.9048 10.7363 11.8969 10.7828L11.8948 10.7944L11.8918 10.8059C11.8879 10.8202 11.887 10.8291 11.8868 10.8336C11.889 10.836 11.8929 10.8397 11.8994 10.8447C11.9123 10.8546 11.9322 10.8669 11.962 10.8811L11.9659 10.883L11.9697 10.885C12.1349 10.971 12.2854 11.0706 12.4238 11.1621L12.4266 11.164C12.5052 11.2146 12.5452 11.2907 12.563 11.3316C12.582 11.3755 12.6044 11.4462 12.5972 11.5229L12.5957 11.539L12.5921 11.5548C12.4791 12.0552 12.276 12.5157 11.9879 12.9427C11.9486 13.0022 11.8862 13.0675 11.7884 13.0965C11.6992 13.1229 11.6183 13.107 11.5711 13.095L11.5638 13.0931L11.5567 13.0908C11.4292 13.0502 11.3043 13.0167 11.1752 12.9821C11.1138 12.9656 11.0514 12.9488 10.9873 12.9309C10.9548 12.9653 10.9136 13.0022 10.8641 13.0318C10.8534 13.0383 10.847 13.0433 10.8434 13.0465C10.8435 13.0496 10.8438 13.054 10.8446 13.0601C10.8468 13.0761 10.852 13.0986 10.8626 13.1301C10.9234 13.3114 10.9606 13.5066 10.992 13.6763L10.9933 13.6833L10.9942 13.6904C11.0033 13.7628 10.9861 13.8306 10.967 13.8777C10.9482 13.9241 10.9085 13.9978 10.8303 14.048C10.3911 14.3304 9.92207 14.5131 9.41343 14.6101C9.34688 14.6255 9.25839 14.6298 9.16936 14.5839C9.08317 14.5395 9.03653 14.4678 9.01142 14.4214L9.00979 14.4184L9.00981 14.4184C8.96103 14.3251 8.90827 14.2325 8.85284 14.1354L8.85177 14.1335C8.80709 14.0552 8.76066 13.9738 8.71589 13.8906C8.68392 13.8909 8.65284 13.8894 8.62615 13.887L8.60782 13.8853L8.58994 13.8809C8.56291 13.8744 8.54781 13.8745 8.5415 13.8751C8.53676 13.8756 8.53564 13.8763 8.53533 13.8765L8.53527 13.8766C8.53299 13.8779 8.51088 13.8922 8.47903 13.9583C8.43787 14.0508 8.3858 14.1332 8.33993 14.203C8.32848 14.2204 8.31755 14.2369 8.30706 14.2527C8.27248 14.3047 8.24267 14.3496 8.21502 14.3978C8.18538 14.4523 8.13292 14.5271 8.03825 14.5685C7.94257 14.6104 7.852 14.5971 7.79548 14.5829C7.29482 14.4629 6.83557 14.2614 6.40854 13.9742C6.34908 13.9349 6.28353 13.8725 6.25452 13.7745C6.22809 13.6852 6.24421 13.6042 6.25623 13.5571L6.2581 13.5498L6.2604 13.5426C6.30121 13.4152 6.33485 13.2905 6.36966 13.1614C6.38579 13.1016 6.40218 13.0409 6.41964 12.9785C6.38701 12.9483 6.35301 12.9083 6.32863 12.8574C6.31965 12.8431 6.31327 12.8365 6.31065 12.8341C6.30631 12.8335 6.29469 12.8327 6.27192 12.8361C6.24728 12.8397 6.21656 12.8471 6.17591 12.859C6.00136 12.9166 5.82124 12.9477 5.66717 12.9732L5.66255 12.974L5.65791 12.9746C5.57389 12.9852 5.49925 12.9579 5.46265 12.9419C5.4261 12.9258 5.35537 12.8894 5.30634 12.8202L5.30313 12.8156L5.30013 12.811C5.01659 12.3706 4.83305 11.8989 4.74435 11.3827L4.74341 11.3773L4.74271 11.3718C4.73199 11.287 4.75951 11.2116 4.77916 11.1705C4.79132 11.145 4.80832 11.116 4.83155 11.0884C4.84894 11.0677 4.87935 11.0363 4.92461 11.0125C5.02404 10.9521 5.12418 10.8958 5.22028 10.8417L5.22202 10.8407C5.30444 10.7943 5.38393 10.7495 5.46179 10.7032C5.46195 10.7009 5.46214 10.6985 5.46237 10.6961L5.4642 10.6765L5.46905 10.6575C5.49039 10.5739 5.47529 10.5385 5.46374 10.5197C5.44652 10.4917 5.40469 10.4514 5.30836 10.4065L5.30355 10.4043L5.30358 10.4042C5.16889 10.338 5.04019 10.2535 4.93353 10.1816C4.85935 10.1335 4.81964 10.0637 4.80018 10.0193C4.77967 9.97249 4.76022 9.90463 4.76709 9.83102L4.76849 9.8161L4.77166 9.80144C4.88218 9.29017 5.094 8.82618 5.381 8.4007C5.41434 8.35022 5.47477 8.2774 5.57867 8.24794C5.67457 8.22074 5.75881 8.24574 5.79865 8.25899C5.92557 8.29942 6.04994 8.33278 6.17858 8.36729C6.24121 8.38409 6.30486 8.40117 6.37031 8.41946C6.40336 8.38396 6.44579 8.34536 6.49725 8.31461C6.50449 8.31022 6.5096 8.30656 6.51309 8.3038C6.51289 8.30149 6.51256 8.29867 6.51206 8.29531C6.5097 8.27953 6.50431 8.25749 6.49391 8.22622L6.73114 8.14732L6.4941 8.22679C6.46231 8.13195 6.44032 8.03649 6.42156 7.95154C6.41873 7.9387 6.41597 7.92614 6.41327 7.91383C6.39731 7.84103 6.38322 7.77682 6.36539 7.71385L6.36507 7.71272C6.34745 7.64939 6.33126 7.55021 6.37987 7.4479C6.42471 7.35352 6.50273 7.30452 6.5495 7.27954ZM6.44277 12.8982C6.4428 12.8982 6.44267 12.8987 6.4423 12.8999C6.44256 12.8988 6.44274 12.8982 6.44277 12.8982ZM8.68361 13.8303C8.68362 13.8302 8.68394 13.8307 8.68456 13.8317C8.68392 13.8308 8.68361 13.8303 8.68361 13.8303ZM10.9117 12.9093C10.9118 12.9092 10.9123 12.9094 10.9135 12.9097C10.9123 12.9095 10.9117 12.9093 10.9117 12.9093ZM11.8416 10.6805C11.8416 10.6805 11.8421 10.6802 11.8431 10.6796C11.8421 10.6802 11.8416 10.6806 11.8416 10.6805ZM10.9256 8.44464C10.9256 8.44466 10.9256 8.44425 10.9258 8.44337C10.9257 8.44419 10.9256 8.44463 10.9256 8.44464ZM7.14007 11.2363C6.81571 10.4008 7.23769 9.46239 8.07629 9.14638L8.07632 9.14637C8.90282 8.83503 9.84706 9.23832 10.1697 10.0675C10.4922 10.8963 10.065 11.8441 9.23947 12.1653L9.23696 12.1663L9.23696 12.1663C8.40376 12.4803 7.45808 12.0782 7.14007 11.2363ZM8.2526 9.61427C7.67263 9.83282 7.38267 10.481 7.60652 11.0562L7.6075 11.0588L7.60748 11.0588C7.82372 11.6326 8.47435 11.9186 9.0594 11.6989C9.63095 11.4757 9.92433 10.8156 9.70377 10.2489C9.48324 9.68215 8.82988 9.39682 8.2526 9.61427Z" fill="#C47D04"/>
<path d="M12.0858 4.70405C12.2003 4.80506 12.3152 4.89917 12.4265 4.9965C12.4362 5.00753 12.4426 5.01487 12.4559 5.02267C12.4991 5.04975 12.7378 4.95106 12.7484 4.89634C12.7779 4.76665 12.8073 4.63696 12.8299 4.50681C12.8368 4.45531 12.8653 4.44332 12.9071 4.43913C13.19 4.40568 13.4691 4.42741 13.745 4.49742C13.7859 4.50702 13.802 4.52539 13.8061 4.56723C13.8112 4.69917 13.8263 4.83525 13.835 4.96397C13.8392 5.00581 13.8511 5.0343 13.8953 5.04758C13.9224 5.05628 13.9495 5.06498 13.9693 5.08013C14.058 5.15175 14.1321 5.13234 14.2126 5.06834C14.293 5.00433 14.3864 4.95502 14.4664 4.89791C14.5028 4.87258 14.5235 4.87393 14.5566 4.89688C14.7212 5.02542 14.8669 5.17696 14.9874 5.34417C15.0352 5.40618 15.0789 5.47831 15.1193 5.54677C15.1285 5.56469 15.1262 5.59917 15.1147 5.61574C15.0315 5.72113 14.9413 5.82607 14.8516 5.92411C14.8217 5.95679 14.813 5.98392 14.8346 6.02344C14.847 6.04503 14.859 6.07352 14.864 6.10156C14.8736 6.21649 14.9472 6.25594 15.0539 6.26639C15.1569 6.28005 15.2558 6.30384 15.3546 6.32763C15.3785 6.33266 15.4075 6.36572 15.413 6.38687C15.4493 6.67326 15.4304 6.95604 15.3595 7.23889C15.3499 7.27982 15.3283 7.29226 15.2864 7.29645C15.1544 7.30167 15.0183 7.31701 14.8896 7.3259C14.8514 7.32686 14.8229 7.33885 14.8132 7.37979C14.8045 7.40692 14.7921 7.43728 14.7732 7.46029C14.7014 7.54912 14.7276 7.62357 14.7915 7.70395C14.8555 7.78433 14.9115 7.87806 14.9644 7.96811C14.9736 7.98603 14.9745 8.02419 14.9593 8.04397C14.7809 8.27822 14.5675 8.46514 14.315 8.61488C14.2823 8.63699 14.2584 8.63196 14.229 8.60579C14.1311 8.51625 14.0258 8.43316 13.9278 8.34363C13.8952 8.31378 13.8681 8.30508 13.8285 8.32674C13.8106 8.33596 13.7857 8.34472 13.7646 8.35027C13.6459 8.36328 13.5963 8.43277 13.5847 8.55324C13.5783 8.6498 13.5443 8.74456 13.5272 8.84389C13.5208 8.8885 13.5024 8.90461 13.4605 8.9088C13.1708 8.9418 12.888 8.92329 12.6052 8.85284C12.5643 8.84323 12.5519 8.82164 12.5477 8.7798C12.5427 8.64785 12.5275 8.51178 12.5188 8.38306C12.5179 8.3449 12.506 8.31641 12.465 8.3068C12.4411 8.30177 12.414 8.29307 12.3979 8.2747C12.2963 8.18839 12.214 8.22803 12.1192 8.29803C12.0424 8.35881 11.956 8.40857 11.8732 8.45511C11.8552 8.46433 11.8139 8.46162 11.7973 8.45015C11.5633 8.27204 11.3766 8.05894 11.2309 7.80348C11.2217 7.78557 11.2244 7.74418 11.2392 7.73129C11.3261 7.62268 11.4195 7.52141 11.5064 7.4128C11.5216 7.39301 11.5202 7.36175 11.522 7.33416C11.5225 7.32727 11.5128 7.31624 11.5101 7.30567C11.4936 7.13834 11.3869 7.07594 11.2319 7.06233C11.1528 7.0537 11.071 7.03449 10.996 7.01573C10.9721 7.0107 10.9464 6.9813 10.9408 6.96016C10.9013 6.6701 10.9239 6.38409 10.9948 6.10125C11.0045 6.06031 11.0224 6.0511 11.0606 6.05013C11.1925 6.04491 11.3287 6.02957 11.4574 6.02068C11.4993 6.01649 11.5278 6.0045 11.5374 5.96357C11.5462 5.93643 11.5586 5.90607 11.5775 5.88306C11.6492 5.79424 11.6193 5.72301 11.5586 5.6463C11.4947 5.56592 11.4455 5.47265 11.3853 5.38904C11.3568 5.34908 11.3619 5.32516 11.3918 5.29248C11.5914 5.0527 11.8158 4.8561 12.0858 4.70405ZM12.5351 7.20648C12.8308 7.55141 13.3518 7.58204 13.6972 7.28598C14.0357 6.98947 14.0744 6.46207 13.7783 6.12404C13.4822 5.78601 12.9612 5.75539 12.6195 6.04822C12.2741 6.34428 12.2358 6.86478 12.5351 7.20648Z" fill="#DD9936"/>
<path fill-rule="evenodd" clip-rule="evenodd" d="M11.6653 5.35896C11.6671 5.36182 11.6689 5.36465 11.6706 5.36743C11.6744 5.37345 11.6781 5.37927 11.6817 5.38485C11.7092 5.42825 11.7314 5.46179 11.7543 5.49067L11.7547 5.49114C11.791 5.53706 11.8481 5.61628 11.8646 5.72105C11.8834 5.83969 11.845 5.94619 11.7781 6.03227C11.7778 6.03316 11.7774 6.03414 11.7771 6.03525C11.7574 6.10518 11.7146 6.17162 11.6438 6.21675C11.5801 6.2573 11.515 6.26612 11.4823 6.26939L11.4785 6.26977L11.4746 6.27004C11.4354 6.27275 11.3905 6.27658 11.3428 6.28065C11.2995 6.28434 11.2541 6.28821 11.2087 6.29161C11.1762 6.46167 11.1643 6.63101 11.1758 6.80054C11.204 6.80616 11.231 6.81062 11.2568 6.81352C11.357 6.82264 11.4769 6.84992 11.5784 6.93056C11.6768 7.00871 11.7319 7.11581 11.7526 7.23466C11.7563 7.24398 11.7614 7.25801 11.7654 7.27545C11.7695 7.29321 11.7736 7.31933 11.7715 7.35079C11.7713 7.35321 11.7713 7.3544 11.7712 7.35668C11.7711 7.35885 11.7709 7.36201 11.7706 7.36815C11.7702 7.37703 11.7693 7.39188 11.7671 7.40856C11.7633 7.43802 11.7522 7.50303 11.7048 7.56491L11.7016 7.56901L11.7016 7.56897C11.6554 7.62669 11.6079 7.68193 11.5637 7.73344L11.5624 7.73491C11.5464 7.75353 11.5308 7.77168 11.5156 7.78958C11.6114 7.93464 11.724 8.06254 11.8559 8.17606C11.8955 8.15185 11.9314 8.12779 11.9641 8.10195L11.9673 8.09937L11.9707 8.09691C12.0196 8.06073 12.1051 8.00025 12.213 7.98142C12.3353 7.9601 12.4469 7.99641 12.5399 8.06803C12.6076 8.08777 12.6739 8.12986 12.7187 8.20127C12.7591 8.26563 12.767 8.33077 12.7686 8.37041C12.7712 8.40856 12.7748 8.45199 12.7787 8.49795C12.7825 8.54289 12.7864 8.59025 12.7899 8.63744C12.9619 8.67 13.1342 8.68112 13.3091 8.67096C13.3096 8.669 13.3101 8.66706 13.3106 8.66515C13.3128 8.65599 13.3149 8.64745 13.3167 8.63969C13.3277 8.59359 13.3336 8.56278 13.3353 8.53653L13.3355 8.53296L13.3359 8.52941C13.344 8.44425 13.3685 8.33914 13.4433 8.25035C13.517 8.16287 13.6143 8.12043 13.7116 8.10513C13.7118 8.10506 13.7121 8.10498 13.7123 8.1049L13.7155 8.10367C13.7694 8.07556 13.844 8.05331 13.9304 8.07079C14.0119 8.08731 14.0676 8.13265 14.0965 8.15907C14.1416 8.20025 14.1889 8.24046 14.2403 8.28412L14.2418 8.28545C14.2593 8.30033 14.2774 8.31563 14.2956 8.3313C14.4411 8.23295 14.5698 8.11919 14.684 7.9868C14.6546 7.93976 14.6258 7.89717 14.5959 7.85948C14.5552 7.80837 14.4989 7.72669 14.4839 7.61992C14.4674 7.50167 14.5064 7.39617 14.5725 7.31099C14.5728 7.3101 14.5732 7.30911 14.5736 7.308C14.593 7.23923 14.6353 7.17162 14.7077 7.12612C14.7719 7.08576 14.837 7.07773 14.8766 7.07615C14.9148 7.07346 14.9582 7.06976 15.0042 7.06583C15.0494 7.06199 15.0969 7.05793 15.1443 7.05443C15.1769 6.88364 15.1879 6.71361 15.1769 6.54272C15.1246 6.53114 15.0749 6.52147 15.0247 6.51466C14.9531 6.50721 14.855 6.48708 14.7694 6.42068C14.6782 6.34996 14.6316 6.25145 14.6176 6.14759L14.6152 6.14336L14.6152 6.14333C14.5854 6.08874 14.5605 6.01142 14.5788 5.92124C14.5954 5.83976 14.6408 5.78417 14.6672 5.75532C14.724 5.69313 14.7809 5.62828 14.8357 5.5626C14.8202 5.53881 14.8048 5.51681 14.7894 5.49678L14.7869 5.49356L14.7845 5.49025C14.7023 5.37608 14.6065 5.26994 14.4999 5.175C14.4976 5.17645 14.4954 5.17788 14.4931 5.1793C14.4862 5.18362 14.4796 5.18777 14.4734 5.19174C14.4307 5.21872 14.3971 5.24096 14.3682 5.26396C14.3128 5.30801 14.2284 5.36304 14.1185 5.37385C14.0073 5.38477 13.9104 5.34726 13.8321 5.28988L13.828 5.28851L13.8203 5.28603C13.754 5.26548 13.6866 5.2242 13.64 5.15178C13.5985 5.08743 13.5896 5.02206 13.5863 4.9885L13.5859 4.98466L13.5856 4.98082C13.583 4.94164 13.5792 4.89667 13.5752 4.84898C13.5715 4.8051 13.5676 4.75892 13.5643 4.71284C13.3939 4.67939 13.2235 4.66699 13.0522 4.6771C13.0335 4.76982 13.0128 4.86097 12.9929 4.9487L12.9926 4.94988C12.9763 5.02478 12.9328 5.07323 12.9143 5.09234C12.8902 5.11728 12.8644 5.13653 12.844 5.1503C12.8023 5.17834 12.7549 5.20213 12.7119 5.22033C12.6688 5.2386 12.6196 5.25571 12.5721 5.26616C12.5489 5.27128 12.5185 5.2765 12.4855 5.27717C12.4625 5.27763 12.3952 5.27775 12.3275 5.23715C12.2905 5.21511 12.2653 5.1907 12.2503 5.17449C12.2037 5.13395 12.1563 5.09375 12.1072 5.05203L12.0956 5.04224C12.0842 5.03258 12.0728 5.02284 12.0612 5.01303C11.9169 5.11097 11.7866 5.22596 11.6653 5.35896ZM11.2029 5.12855C11.4184 4.87051 11.6646 4.65429 11.9631 4.48618L12.1179 4.39897L12.2512 4.51653C12.3064 4.56525 12.3621 4.6126 12.4191 4.66097L12.4312 4.67123C12.4621 4.69747 12.4935 4.7241 12.5249 4.75105C12.5467 4.65414 12.5667 4.5606 12.583 4.46748C12.5933 4.39872 12.6252 4.3156 12.705 4.25549C12.7739 4.20362 12.8479 4.19386 12.8799 4.19057C13.1938 4.15371 13.5024 4.17811 13.8047 4.25461C13.8495 4.2654 13.9201 4.28998 13.9774 4.35546C14.0359 4.42224 14.0504 4.49703 14.0549 4.54261L14.0557 4.55011L14.056 4.55764C14.059 4.6362 14.0652 4.70896 14.0718 4.78663C14.0736 4.80829 14.0755 4.83033 14.0774 4.85298C14.0783 4.85352 14.0793 4.85406 14.0803 4.8546C14.1243 4.82143 14.1684 4.79301 14.206 4.76924C14.2145 4.76383 14.2227 4.7587 14.2304 4.7538C14.2661 4.73133 14.2944 4.71352 14.3212 4.69437L14.3234 4.69278L14.3234 4.69279C14.3568 4.66955 14.423 4.62898 14.5134 4.62925C14.6041 4.62951 14.6693 4.67077 14.699 4.69137L14.7048 4.69542L14.7104 4.69979C14.8925 4.84199 15.054 5.00954 15.1879 5.19479C15.2452 5.26957 15.2949 5.3525 15.3345 5.41953L15.3383 5.42595L15.3418 5.4326C15.3749 5.49727 15.3767 5.56128 15.3742 5.59839C15.3717 5.63553 15.3615 5.69864 15.3201 5.75825L15.3157 5.7646L15.3109 5.77066C15.2439 5.85544 15.173 5.93951 15.1017 6.01998C15.1017 6.02018 15.1018 6.02038 15.1018 6.02058C15.2123 6.03619 15.3165 6.06128 15.4082 6.08333L15.4113 6.08408C15.4942 6.10312 15.5489 6.15455 15.5723 6.17932C15.598 6.20641 15.6373 6.25621 15.6549 6.32372L15.659 6.33936L15.661 6.3554C15.7013 6.67348 15.6802 6.98709 15.6024 7.29832C15.5889 7.3541 15.5576 7.42778 15.4836 7.48247C15.4167 7.53188 15.3458 7.5417 15.3113 7.54516L15.3038 7.54591L15.2963 7.54621C15.2177 7.54931 15.1449 7.55562 15.0672 7.56236C15.0461 7.56419 15.0246 7.56606 15.0025 7.5679C15.0722 7.65889 15.1314 7.75868 15.18 7.84149L15.1836 7.84761L15.1868 7.85394C15.2171 7.91291 15.2224 7.97322 15.2208 8.0144C15.2194 8.05501 15.2095 8.12831 15.158 8.19569C15.1579 8.19582 15.1578 8.19595 15.1577 8.19608L14.9593 8.04393L15.1582 8.19543C15.1581 8.19552 15.1581 8.1956 15.158 8.19569C14.9604 8.45493 14.7241 8.66209 14.4473 8.82703C14.45 8.8253 14.4526 8.82356 14.4552 8.82184L14.315 8.61483L14.4425 8.82986C14.4441 8.82892 14.4457 8.82797 14.4473 8.82703C14.4002 8.85713 14.3283 8.88783 14.2389 8.87635C14.1519 8.86517 14.0925 8.8189 14.0629 8.79255L14.0603 8.79027L14.0603 8.79025C14.0153 8.74908 13.968 8.70886 13.9166 8.6652L13.915 8.66387C13.8883 8.64118 13.8604 8.61753 13.8323 8.59309C13.8263 8.6544 13.8138 8.7106 13.8032 8.75527C13.8 8.76881 13.797 8.78114 13.7942 8.79262C13.7857 8.82771 13.7791 8.85481 13.774 8.88373C13.7668 8.93077 13.7469 9.00839 13.6796 9.0725C13.6112 9.13759 13.5318 9.15267 13.4874 9.15731C13.1689 9.19342 12.857 9.173 12.546 9.09569C12.4902 9.08226 12.4164 9.05106 12.3616 8.97688C12.3121 8.90987 12.3024 8.8388 12.2989 8.80433L12.2982 8.79683L12.2979 8.78929C12.2949 8.71074 12.2887 8.63798 12.2821 8.56031C12.2803 8.53963 12.2785 8.5186 12.2767 8.49701C12.2757 8.49631 12.2746 8.4956 12.2735 8.49488C12.2726 8.49553 12.2717 8.4962 12.2707 8.49689C12.1776 8.57001 12.0767 8.62746 11.9957 8.67299L11.9916 8.67528L11.9875 8.67742C11.9181 8.71306 11.8485 8.71178 11.8184 8.70981C11.7883 8.70784 11.7191 8.70006 11.6549 8.65557L11.6503 8.65241L11.6459 8.64904C11.3851 8.45059 11.1761 8.21196 11.0137 7.92732L11.011 7.9225L11.0084 7.91756C10.9725 7.84755 10.9737 7.77718 10.9772 7.74124C10.9795 7.71787 10.9846 7.68947 10.9956 7.65954C11.0035 7.63799 11.0192 7.60218 11.0502 7.56723C11.0944 7.51235 11.1396 7.45976 11.1819 7.41058L11.1831 7.40909C11.2096 7.37834 11.2349 7.34887 11.2593 7.31971C11.2494 7.31672 11.2336 7.3134 11.2101 7.31133L11.2048 7.31087L11.2048 7.31081C11.1082 7.30027 11.0129 7.27759 10.9379 7.25884C10.86 7.24056 10.8073 7.19445 10.7805 7.16636C10.752 7.13643 10.7158 7.0877 10.6989 7.02321L10.6952 7.00871L10.6931 6.99385C10.6489 6.6689 10.6746 6.35112 10.7519 6.04177C10.7629 5.99623 10.7904 5.9158 10.8708 5.85785C10.9443 5.80486 11.0223 5.80103 11.0523 5.80022C11.1303 5.79709 11.2026 5.79081 11.2797 5.78412C11.301 5.78228 11.3227 5.7804 11.3449 5.77855C11.3118 5.73454 11.2834 5.69041 11.2595 5.65282C11.2551 5.64589 11.2509 5.63921 11.2468 5.63275C11.2228 5.59486 11.2035 5.56436 11.1825 5.53512L11.1818 5.53417L11.1818 5.53416C11.1531 5.49397 11.108 5.41692 11.1178 5.3142C11.1267 5.22133 11.1764 5.15827 11.2029 5.12855ZM11.2979 7.44119C11.298 7.44142 11.298 7.4414 11.2979 7.44118L11.2979 7.44119ZM12.932 4.68784C12.929 4.68815 12.9298 4.68831 12.9334 4.68773L12.932 4.68788L12.932 4.68784ZM12.3462 7.37016C11.9557 6.92326 12.0066 6.2442 12.4568 5.85836L12.4568 5.85834C12.8996 5.47886 13.5775 5.5153 13.9663 5.95927C14.3549 6.40285 14.3026 7.088 13.8619 7.47399L13.8599 7.47576L13.8599 7.47575C13.4141 7.85784 12.7353 7.82302 12.3462 7.37016ZM12.7821 6.23801C12.5419 6.44399 12.516 6.8052 12.7232 7.04171L12.725 7.04374L12.7249 7.04375C12.9269 7.27943 13.2888 7.30578 13.5334 7.097C13.7688 6.88982 13.7936 6.52087 13.5902 6.28872C13.3869 6.05663 13.0227 6.03182 12.7821 6.23801ZM14.761 7.89177L14.7605 7.89242L14.761 7.89177Z" fill="#C47D04"/>
</g>
<defs>
<clipPath id="clip0_710_120">
</clipPath>
<clipPath id="clip1_710_120">
</clipPath>
</defs>
</svg>
